<svg width="117" height="29" viewBox="0 0 117 29" fill="none" xmlns="http://www.w3.org/2000/svg">
<path d="M1.04 24.72C2.05333 24.56 2.74667 24.24 3.12 23.76C3.49333 23.28 3.68 22.4533 3.68 21.28L3.72 5.96C3.72 5.13333 3.62667 4.58667 3.44 4.32C3.25333 4.02667 2.86667 3.88 2.28 3.88L1.04 3.92L0.84 3.6L1.16 1.28L6.52 1.32C7.26667 1.32 8.34667 1.28 9.76 1.2C11.2 1.12 12.1467 1.06667 12.6 1.04L12.32 3.8C11.4133 3.90667 10.7467 4.06667 10.32 4.28C9.92 4.46667 9.65333 4.74666 9.52 5.12C9.41333 5.46666 9.33333 6.02667 9.28 6.8C8.98667 10.8 8.84 15.6933 8.84 21.48C8.84 22.2 8.90667 22.7333 9.04 23.08C9.17333 23.4 9.41333 23.6267 9.76 23.76C10.1067 23.8667 10.64 23.92 11.36 23.92C12.6933 23.92 13.68 23.7733 14.32 23.48C14.9867 23.1867 15.48 22.6267 15.8 21.8C16.12 20.9733 16.3867 19.6667 16.6 17.88L19.84 17.52L20.12 17.92C20.04 18.4267 19.88 19.5733 19.64 21.36C19.4267 23.12 19.24 24.9733 19.08 26.92L18.68 27.32C17.96 27.2933 16.4 27.2267 14 27.12C11.6 27.04 9.42667 27 7.48 27C6.01333 27 4.61333 27.0533 3.28 27.16C1.94667 27.2667 1.09333 27.3467 0.72 27.4L1.04 24.72ZM32.8109 27.48C30.4643 27.48 28.4243 26.9733 26.6909 25.96C24.9843 24.92 23.6643 23.4533 22.7309 21.56C21.8243 19.6667 21.3709 17.4267 21.3709 14.84C21.3709 12.0667 21.9176 9.62667 23.0109 7.52C24.1043 5.41333 25.6376 3.77333 27.6109 2.6C29.6109 1.42667 31.9043 0.839998 34.4909 0.839998C36.8909 0.839998 38.9576 1.34666 40.6909 2.36C42.4509 3.34666 43.7843 4.78666 44.6909 6.68C45.6243 8.54667 46.0909 10.7733 46.0909 13.36C46.0909 16.1333 45.5309 18.6 44.4109 20.76C43.3176 22.8933 41.7576 24.5467 39.7309 25.72C37.7309 26.8933 35.4243 27.48 32.8109 27.48ZM33.8509 24.08C35.7709 24.08 37.2643 23.3333 38.3309 21.84C39.4243 20.32 39.9709 18.1867 39.9709 15.44C39.9709 11.9467 39.3976 9.28 38.2509 7.44C37.1043 5.57333 35.4776 4.64 33.3709 4.64C31.4776 4.64 29.9976 5.4 28.9309 6.92C27.8909 8.41333 27.3709 10.5333 27.3709 13.28C27.3709 16.7733 27.9309 19.4533 29.0509 21.32C30.1976 23.16 31.7976 24.08 33.8509 24.08ZM60.2831 27.48C57.8298 27.48 55.7098 26.9733 53.9231 25.96C52.1365 24.9467 50.7631 23.4933 49.8031 21.6C48.8431 19.7067 48.3631 17.4667 48.3631 14.88C48.3631 12 48.9365 9.50667 50.0831 7.4C51.2298 5.29333 52.8698 3.68 55.0031 2.56C57.1365 1.41333 59.6565 0.839998 62.5631 0.839998C63.6031 0.839998 64.7098 0.919999 65.8831 1.08C67.0565 1.21333 68.0565 1.36 68.8831 1.52C69.7098 1.68 70.2431 1.78667 70.4831 1.84L70.7631 2.36C70.7098 2.52 70.6165 2.93333 70.4831 3.6C70.3498 4.24 70.2031 5.10666 70.0431 6.2C69.9098 7.26667 69.8031 8.41333 69.7231 9.64L65.8831 9.92C65.9098 9.81333 65.9365 9.56 65.9631 9.16C65.9898 8.76 66.0031 8.28 66.0031 7.72C66.0031 6.6 65.6565 5.81333 64.9631 5.36C64.2965 4.88 63.1765 4.64 61.6031 4.64C59.1765 4.64 57.3631 5.37333 56.1631 6.84C54.9631 8.28 54.3631 10.5067 54.3631 13.52C54.3631 16.8 54.9631 19.3467 56.1631 21.16C57.3898 22.9467 59.0831 23.84 61.2431 23.84C61.9631 23.84 62.6165 23.76 63.2031 23.6C63.7898 23.44 64.2431 23.28 64.5631 23.12C64.9098 22.9333 65.1231 22.8133 65.2031 22.76V18.96C65.2031 18.1867 65.0831 17.68 64.8431 17.44C64.6031 17.1733 64.1231 17.04 63.4031 17.04H61.3231L61.1231 16.72L61.5231 13.88C62.1631 13.88 62.7098 13.8933 63.1631 13.92C64.6565 13.9733 65.9631 14 67.0831 14C67.9098 14 68.7231 13.9733 69.5231 13.92C70.3231 13.8667 70.8431 13.8267 71.0831 13.8L71.3631 15.32C70.9098 15.6133 70.5631 15.9867 70.3231 16.44C70.1098 16.8667 69.9631 17.4933 69.8831 18.32C69.8031 19.12 69.7631 20.3067 69.7631 21.88C69.7631 23.48 69.8565 24.64 70.0431 25.36L69.6831 25.84C69.6831 25.8667 69.2298 26.0267 68.3231 26.32C67.4431 26.6133 66.2965 26.88 64.8831 27.12C63.4965 27.36 61.9631 27.48 60.2831 27.48ZM75.135 24.8C76.3083 24.56 77.095 24.2267 77.495 23.8C77.895 23.3467 78.095 22.56 78.095 21.44V5.96C78.095 5.13333 78.0017 4.58667 77.815 4.32C77.6283 4.02667 77.2417 3.88 76.655 3.88L75.255 3.92L75.055 3.6L75.375 1.28L80.895 1.32C81.775 1.32 83.6417 1.22667 86.495 1.04L86.295 3.68C85.2817 3.81333 84.6017 4.02667 84.255 4.32C83.935 4.58667 83.7483 5.09333 83.695 5.84C83.3483 12.1333 83.175 17.4267 83.175 21.72C83.175 22.8133 83.2817 23.5467 83.495 23.92C83.7083 24.2933 84.1217 24.48 84.735 24.48C85.0283 24.48 85.615 24.44 86.495 24.36L86.655 24.6L86.295 27.12L84.855 27.08L80.415 27C79.1883 27 77.3483 27.12 74.895 27.36L75.135 24.8ZM109.064 28.08C106.451 23.92 103.811 19.8667 101.144 15.92C98.5044 11.9733 97.1844 10.0267 97.1844 10.08H96.8244L96.7844 22.68C96.7844 23.3733 96.8777 23.8533 97.0644 24.12C97.2777 24.36 97.6377 24.48 98.1444 24.48L99.9044 24.4L100.104 24.64L99.7044 27.16C99.331 27.1333 98.6377 27.0933 97.6244 27.04C96.611 27.0133 95.5977 27 94.5844 27C93.7044 27 92.7577 27.04 91.7444 27.12C90.731 27.2267 90.0777 27.2933 89.7844 27.32L90.0644 24.68C90.891 24.5733 91.491 24.3333 91.8644 23.96C92.2377 23.56 92.4377 22.96 92.4644 22.16L92.9444 6.28C92.9444 5.42667 92.731 4.82667 92.3044 4.48C91.8777 4.13333 91.011 3.89333 89.7044 3.76L89.4244 3.4L89.7044 1.12C89.9977 1.14667 90.6244 1.18667 91.5844 1.24C92.5444 1.29333 93.4377 1.32 94.2644 1.32C94.9577 1.32 95.691 1.30667 96.4644 1.28C97.2644 1.22667 97.7844 1.18667 98.0244 1.16C100.211 4.73333 102.558 8.41333 105.064 12.2C107.598 15.9867 108.864 17.8533 108.864 17.8H109.264L109.184 5.6C109.158 4.98667 109.038 4.54667 108.824 4.28C108.638 4.01333 108.318 3.88 107.864 3.88L106.464 3.92L106.344 3.64L106.624 1.16C106.998 1.18667 107.678 1.22667 108.664 1.28C109.678 1.30667 110.691 1.32 111.704 1.32C112.504 1.32 113.398 1.29333 114.384 1.24C115.398 1.18667 116.064 1.14667 116.384 1.12L116.184 3.76C115.278 3.89333 114.624 4.14667 114.224 4.52C113.851 4.89333 113.651 5.48 113.624 6.28L113.104 27.56L109.064 28.08Z" fill="#0A376E"/>
</svg>
