<svg width="352" height="26" viewBox="0 0 352 26" fill="none" xmlns="http://www.w3.org/2000/svg">
<path d="M8.2833 19.3C6.76663 19.3 5.44997 18.9833 4.3333 18.35C3.21663 17.7167 2.3583 16.8083 1.7583 15.625C1.1583 14.4417 0.858301 13.0417 0.858301 11.425C0.858301 9.65833 1.21663 8.11667 1.9333 6.8C2.64997 5.48333 3.66663 4.46667 4.9833 3.75C6.31663 3.01667 7.8583 2.65 9.6083 2.65C10.225 2.65 10.8833 2.7 11.5833 2.8C12.3 2.88333 12.9083 2.975 13.4083 3.075C13.9083 3.175 14.225 3.24167 14.3583 3.275L14.5083 3.6C14.475 3.71667 14.4166 3.98333 14.3333 4.4C14.25 4.81667 14.1583 5.375 14.0583 6.075C13.9583 6.775 13.8833 7.51667 13.8333 8.3L11.4583 8.45C11.4583 8.38333 11.4666 8.23333 11.4833 8C11.5 7.75 11.5083 7.46667 11.5083 7.15C11.5083 6.41667 11.2833 5.88333 10.8333 5.55C10.3833 5.2 9.67497 5.025 8.7083 5.025C7.39163 5.025 6.3833 5.49167 5.6833 6.425C4.99997 7.35833 4.6583 8.73333 4.6583 10.55C4.6583 12.6 5.02497 14.1917 5.7583 15.325C6.5083 16.4583 7.54997 17.025 8.8833 17.025C9.79997 17.025 10.5166 16.75 11.0333 16.2C11.55 15.6333 11.9083 14.7417 12.1083 13.525L14.5083 13.375C14.4583 13.6583 14.3666 14.2833 14.2333 15.25C14.1166 16.2167 14.0416 17.1333 14.0083 18L13.7583 18.3C13.7583 18.3167 13.475 18.4167 12.9083 18.6C12.3583 18.7667 11.675 18.925 10.8583 19.075C10.0583 19.225 9.19997 19.3 8.2833 19.3ZM21.2474 19.3C20.1974 19.3 19.2724 19.0667 18.4724 18.6C17.6724 18.1167 17.0557 17.4417 16.6224 16.575C16.189 15.7083 15.9724 14.7083 15.9724 13.575C15.9724 12.325 16.2224 11.2167 16.7224 10.25C17.239 9.28333 17.9474 8.53333 18.8474 8C19.764 7.45 20.814 7.175 21.9974 7.175C23.614 7.175 24.889 7.69167 25.8224 8.725C26.7724 9.74167 27.2474 11.125 27.2474 12.875C27.2474 14.125 26.9974 15.2417 26.4974 16.225C25.9974 17.1917 25.289 17.95 24.3724 18.5C23.4724 19.0333 22.4307 19.3 21.2474 19.3ZM21.7474 17.425C22.464 17.425 23.0057 17.1417 23.3724 16.575C23.7557 15.9917 23.9474 15.1417 23.9474 14.025C23.9474 12.4583 23.7307 11.275 23.2974 10.475C22.864 9.675 22.239 9.275 21.4224 9.275C20.7057 9.275 20.1557 9.56667 19.7724 10.15C19.4057 10.7167 19.2224 11.5583 19.2224 12.675C19.2224 14.2417 19.439 15.425 19.8724 16.225C20.3057 17.025 20.9307 17.425 21.7474 17.425ZM29.013 23.375C29.4797 23.3417 29.7797 23.225 29.913 23.025C30.063 22.825 30.1463 22.4167 30.163 21.8C30.2463 20.2167 30.288 18.9417 30.288 17.975V10.9C30.288 10.3333 30.1963 9.94167 30.013 9.725C29.8463 9.50833 29.5297 9.4 29.063 9.4H28.738L28.638 9.275L28.763 7.975C29.6963 7.84167 30.6213 7.68333 31.538 7.5C32.4547 7.31667 33.0463 7.2 33.313 7.15L33.538 7.4C33.5213 7.5 33.4797 7.71667 33.413 8.05C33.3463 8.36667 33.2963 8.675 33.263 8.975L33.363 9.1C34.7297 7.88333 35.5713 7.275 35.888 7.275C36.8713 7.275 37.738 7.5 38.488 7.95C39.238 8.4 39.813 9.04167 40.213 9.875C40.6297 10.7083 40.838 11.6667 40.838 12.75C40.838 14.0333 40.5547 15.1667 39.988 16.15C39.4213 17.1333 38.638 17.9 37.638 18.45C36.638 18.9833 35.4963 19.25 34.213 19.25C33.9963 19.25 33.7797 19.2417 33.563 19.225C33.3463 19.2083 33.1963 19.1917 33.113 19.175L33.138 21.5C33.138 22.1833 33.188 22.6417 33.288 22.875C33.4047 23.1083 33.6547 23.225 34.038 23.225C34.2713 23.225 34.4713 23.2167 34.638 23.2C34.8213 23.1833 34.963 23.175 35.063 23.175L35.113 23.275L34.838 24.8C34.4713 24.8 34.1463 24.7917 33.863 24.775L31.838 24.75C31.2547 24.75 30.6463 24.7667 30.013 24.8C29.3963 24.85 28.9963 24.8833 28.813 24.9L29.013 23.375ZM35.088 17.225C35.9047 17.225 36.538 16.9167 36.988 16.3C37.438 15.6833 37.663 14.8167 37.663 13.7C37.663 12.4833 37.4297 11.5167 36.963 10.8C36.513 10.0667 35.913 9.7 35.163 9.7C34.9297 9.7 34.6463 9.775 34.313 9.925C33.9797 10.0583 33.663 10.2417 33.363 10.475C33.263 12.425 33.213 14.55 33.213 16.85C33.4297 16.9333 33.713 17.0167 34.063 17.1C34.413 17.1833 34.7547 17.225 35.088 17.225ZM42.4733 25.025C42.3233 25.025 42.0983 24.8917 41.7983 24.625C41.4983 24.375 41.2317 24.0833 40.9983 23.75C40.7483 23.4333 40.6233 23.1917 40.6233 23.025L40.7983 22.725C41.865 22.6417 42.815 22.2917 43.6483 21.675C44.4817 21.075 45.1817 20.25 45.7483 19.2C45.6983 19.1 45.6567 19 45.6233 18.9C45.6067 18.8 45.5817 18.7083 45.5483 18.625C45.3317 18.0417 44.8483 16.7083 44.0983 14.625C43.365 12.525 42.7983 11 42.3983 10.05C42.2317 9.66667 42.0233 9.4 41.7733 9.25C41.54 9.08333 41.24 8.99167 40.8733 8.975L40.8233 8.85L40.9983 7.45L42.9483 7.475C43.6983 7.475 44.515 7.45 45.3983 7.4C46.2817 7.35 46.7233 7.31667 46.7233 7.3L46.7733 7.425L46.5733 8.85C46.09 8.86667 45.765 8.925 45.5983 9.025C45.4483 9.10833 45.3733 9.25 45.3733 9.45C45.3733 9.7 45.4983 10.2917 45.7483 11.225C46.015 12.1417 46.2817 13.0583 46.5483 13.975C46.8317 14.875 47.015 15.4583 47.0983 15.725H47.3483C48.865 11.875 49.6233 9.78333 49.6233 9.45C49.6233 9.26667 49.565 9.13333 49.4483 9.05C49.3317 8.96667 49.14 8.925 48.8733 8.925H48.0733L47.9983 8.8L48.1983 7.4C48.365 7.41667 48.6983 7.43333 49.1983 7.45C49.6983 7.46667 50.2483 7.475 50.8483 7.475L53.1483 7.45L52.9483 8.95C52.5817 9.03333 52.315 9.15833 52.1483 9.325C51.9817 9.475 51.8233 9.75833 51.6733 10.175L48.4983 17.9C47.4317 20.4833 46.4317 22.3167 45.4983 23.4C44.5817 24.5 43.5733 25.0417 42.4733 25.025ZM53.87 17.575C54.37 17.5417 54.7034 17.4083 54.87 17.175C55.0534 16.9417 55.145 16.5 55.145 15.85V10.875C55.145 10.3083 55.07 9.925 54.92 9.725C54.77 9.50833 54.4867 9.4 54.07 9.4L53.595 9.425L53.47 9.25L53.62 8C54.5034 7.85 55.4034 7.68333 56.32 7.5C57.2534 7.31667 57.8534 7.2 58.12 7.15L58.345 7.375C58.3117 7.525 58.2617 7.84167 58.195 8.325C58.145 8.80833 58.1117 9.275 58.095 9.725L58.245 9.825C58.7617 9.04167 59.3284 8.43333 59.945 8C60.5784 7.56667 61.1784 7.35 61.745 7.35C61.9784 7.35 62.17 7.35833 62.32 7.375C62.47 7.39167 62.57 7.40833 62.62 7.425L62.72 7.625C62.67 7.90833 62.5867 8.525 62.47 9.475C62.3534 10.4083 62.27 11.3 62.22 12.15L60.62 12.25C60.62 11.45 60.57 10.925 60.47 10.675C60.3867 10.4083 60.2034 10.275 59.92 10.275C59.6534 10.275 59.37 10.375 59.07 10.575C58.77 10.775 58.4867 11.05 58.22 11.4C58.2034 11.8667 58.1617 12.6333 58.095 13.7C58.045 14.75 58.0117 15.5917 57.995 16.225C57.995 16.6583 58.0617 16.9583 58.195 17.125C58.345 17.2917 58.6034 17.375 58.97 17.375C59.22 17.375 59.47 17.3667 59.72 17.35C59.97 17.3333 60.1367 17.3167 60.22 17.3L60.295 17.45L60.02 19.1C59.7867 19.0833 59.3534 19.0583 58.72 19.025C58.1034 19.0083 57.4617 19 56.795 19C56.1617 19 55.5284 19.0083 54.895 19.025C54.2617 19.0583 53.8534 19.0833 53.67 19.1L53.87 17.575ZM63.9233 17.7C64.4067 17.6167 64.7567 17.4583 64.9733 17.225C65.2067 16.975 65.3233 16.6167 65.3233 16.15V10.75C65.3233 10.2167 65.2483 9.85 65.0983 9.65C64.9483 9.45 64.6733 9.35 64.2733 9.35C64.1567 9.35 64.04 9.35833 63.9233 9.375C63.8067 9.39167 63.7317 9.40833 63.6983 9.425L63.8483 8C64.7817 7.86667 65.7317 7.71667 66.6983 7.55C67.665 7.36667 68.29 7.24167 68.5733 7.175L68.7983 7.575C68.615 7.94167 68.465 8.95 68.3483 10.6C68.2483 12.2333 68.1983 14.1583 68.1983 16.375C68.1983 16.775 68.2567 17.0583 68.3733 17.225C68.49 17.3917 68.69 17.475 68.9733 17.475C69.1233 17.475 69.265 17.4667 69.3983 17.45C69.5483 17.4333 69.6483 17.425 69.6983 17.425L69.7733 17.55L69.5233 19.075C69.34 19.0583 68.9733 19.0417 68.4233 19.025C67.89 19.0083 67.34 19 66.7733 19C66.2567 19 65.665 19.0333 64.9983 19.1C64.3483 19.1833 63.9233 19.2417 63.7233 19.275L63.9233 17.7ZM66.5483 5.025C65.9983 5.025 65.5733 4.86667 65.2733 4.55C64.9733 4.23333 64.8233 3.80833 64.8233 3.275C64.8233 2.675 64.9983 2.19167 65.3483 1.825C65.715 1.45833 66.1983 1.275 66.7983 1.275C67.3317 1.275 67.7483 1.44167 68.0483 1.775C68.3483 2.09167 68.4983 2.51667 68.4983 3.05C68.4983 3.63333 68.315 4.10833 67.9483 4.475C67.5983 4.84167 67.1317 5.025 66.5483 5.025ZM82.6231 8.6C81.7398 8.68333 81.1231 8.73333 80.7731 8.75L80.6731 8.9C81.3398 9.61667 81.6731 10.4417 81.6731 11.375C81.6731 12.2083 81.4398 12.9667 80.9731 13.65C80.5065 14.3333 79.8648 14.8667 79.0481 15.25C78.2315 15.6333 77.3148 15.825 76.2981 15.825C75.7481 15.825 75.2065 15.7583 74.6731 15.625C74.4565 15.8083 74.2981 15.9667 74.1981 16.1C74.1148 16.2167 74.0731 16.3417 74.0731 16.475C74.0731 16.7917 74.3148 17.0167 74.7981 17.15C75.2815 17.2833 76.0481 17.4083 77.0981 17.525C78.2148 17.6417 79.1315 17.775 79.8481 17.925C80.5648 18.075 81.1815 18.35 81.6981 18.75C82.2315 19.1333 82.4981 19.6833 82.4981 20.4C82.4981 21.1833 82.1815 21.9333 81.5481 22.65C80.9148 23.3667 80.0898 23.9417 79.0731 24.375C78.0565 24.825 76.9898 25.05 75.8731 25.05C74.5398 25.05 73.4731 24.725 72.6731 24.075C71.8731 23.4417 71.4731 22.5917 71.4731 21.525C71.9065 21.075 72.7398 20.4667 73.9731 19.7V19.525C73.1731 19.3917 72.5481 19.1083 72.0981 18.675C71.6648 18.225 71.4315 17.6583 71.3981 16.975C71.9981 16.3583 72.6815 15.8 73.4481 15.3V15.15C72.8481 14.8 72.3815 14.3333 72.0481 13.75C71.7148 13.1667 71.5481 12.5083 71.5481 11.775C71.5481 10.9083 71.7731 10.125 72.2231 9.425C72.6731 8.70833 73.2898 8.15 74.0731 7.75C74.8565 7.35 75.7398 7.15 76.7231 7.15C77.1398 7.15 77.6315 7.2 78.1981 7.3C78.7315 7.36667 79.0981 7.4 79.2981 7.4C79.8981 7.36667 81.0648 7.09167 82.7981 6.575L82.9481 6.675L82.6231 8.6ZM76.7481 14.175C77.3481 14.175 77.8065 13.9667 78.1231 13.55C78.4565 13.1333 78.6231 12.5333 78.6231 11.75C78.6231 10.9167 78.4315 10.25 78.0481 9.75C77.6815 9.25 77.1565 9 76.4731 9C75.8898 9 75.4315 9.20833 75.0981 9.625C74.7815 10.025 74.6231 10.6333 74.6231 11.45C74.6231 12.2667 74.8065 12.925 75.1731 13.425C75.5565 13.925 76.0815 14.175 76.7481 14.175ZM75.5231 19.85C75.2231 20.1 74.9898 20.3833 74.8231 20.7C74.6565 21.0167 74.5731 21.3333 74.5731 21.65C74.5731 22.1333 74.7648 22.5083 75.1481 22.775C75.5481 23.0583 76.1065 23.2 76.8231 23.2C77.6398 23.2 78.3231 23.0167 78.8731 22.65C79.4398 22.3 79.7231 21.8667 79.7231 21.35C79.7231 21.0833 79.6231 20.8667 79.4231 20.7C79.2231 20.55 78.8315 20.4083 78.2481 20.275C77.6815 20.1583 76.7731 20.0167 75.5231 19.85ZM83.7423 17.55C84.1756 17.5 84.4756 17.3833 84.6423 17.2C84.8256 17 84.9173 16.6667 84.9173 16.2V4.05C84.9173 3.51667 84.8423 3.15 84.6923 2.95C84.5423 2.75 84.2673 2.65 83.8673 2.65H83.2923L83.1923 2.55L83.3423 1.25C85.1423 0.999999 86.8256 0.733333 88.3923 0.449999L88.5673 0.924999C88.4006 1.10833 88.259 1.94167 88.1423 3.425C88.0256 4.89167 87.934 6.85833 87.8673 9.325C88.4006 8.80833 89.009 8.325 89.6923 7.875C90.3923 7.40833 90.9006 7.175 91.2173 7.175C92.4173 7.175 93.3423 7.45833 93.9923 8.025C94.6423 8.575 94.9673 9.36667 94.9673 10.4C94.9673 10.8 94.8923 11.675 94.7423 13.025C94.5756 14.725 94.4923 15.8167 94.4923 16.3C94.4923 16.7333 94.5506 17.0417 94.6673 17.225C94.8006 17.4083 95.009 17.5 95.2923 17.5L96.0423 17.45L96.0923 17.55L95.8673 19.075L95.2923 19.05C94.3256 19.0167 93.6173 19 93.1673 19C92.5506 19 91.6256 19.0667 90.3923 19.2L90.5173 17.65C90.934 17.5667 91.234 17.4167 91.4173 17.2C91.6006 16.9833 91.6923 16.6667 91.6923 16.25L91.7923 11.925C91.809 10.475 91.2673 9.75 90.1673 9.75C89.884 9.75 89.5173 9.85 89.0673 10.05C88.634 10.2333 88.2256 10.4833 87.8423 10.8C87.809 11.7667 87.7923 13.6167 87.7923 16.35C87.7923 16.7667 87.8506 17.0583 87.9673 17.225C88.084 17.3917 88.2756 17.475 88.5423 17.475L89.1923 17.45L89.2423 17.575L88.9923 19.075C88.7756 19.075 88.609 19.0667 88.4923 19.05C87.5256 19.0167 86.7923 19 86.2923 19C85.3256 19 84.4006 19.025 83.5173 19.075L83.7423 17.55ZM101.817 19.3C100.633 19.3 99.7665 19.0583 99.2165 18.575C98.6665 18.075 98.3915 17.2917 98.3915 16.225V10.65C98.3915 10.1167 98.2998 9.76667 98.1165 9.6C97.9332 9.41667 97.5748 9.31667 97.0415 9.3L96.7915 9.125L96.9665 7.9C97.5998 7.6 98.2248 7.25833 98.8415 6.875C99.4582 6.475 99.9665 6.125 100.367 5.825C100.783 5.525 101.042 5.33333 101.142 5.25L101.842 5.6C101.825 5.7 101.783 5.94167 101.717 6.325C101.667 6.70833 101.617 7.18333 101.567 7.75L104.517 7.675L104.617 7.8L104.367 9.475L101.417 9.4C101.317 10.85 101.267 12.6667 101.267 14.85C101.267 15.5667 101.392 16.0833 101.642 16.4C101.892 16.7167 102.3 16.875 102.867 16.875C103.167 16.875 103.467 16.825 103.767 16.725C104.083 16.625 104.283 16.5583 104.367 16.525L104.692 17.325C104.592 17.425 104.35 17.6333 103.967 17.95C103.6 18.2667 103.2 18.575 102.767 18.875C102.35 19.1583 102.033 19.3 101.817 19.3ZM117.988 19.3C116.605 19.3 115.33 18.9583 114.163 18.275C113.013 17.5917 112.096 16.6667 111.413 15.5C110.73 14.3333 110.388 13.0583 110.388 11.675C110.388 10.2917 110.73 9.01667 111.413 7.85C112.096 6.68333 113.013 5.75833 114.163 5.075C115.33 4.39167 116.605 4.05 117.988 4.05C119.371 4.05 120.646 4.39167 121.813 5.075C122.98 5.75833 123.905 6.68333 124.588 7.85C125.271 9.01667 125.613 10.2917 125.613 11.675C125.613 13.0583 125.271 14.3333 124.588 15.5C123.905 16.6667 122.98 17.5917 121.813 18.275C120.646 18.9583 119.371 19.3 117.988 19.3ZM117.988 18.075C119.138 18.075 120.196 17.7917 121.163 17.225C122.146 16.6417 122.921 15.8583 123.488 14.875C124.071 13.8917 124.363 12.825 124.363 11.675C124.363 10.525 124.071 9.45833 123.488 8.475C122.921 7.49167 122.146 6.71667 121.163 6.15C120.196 5.56667 119.138 5.275 117.988 5.275C116.838 5.275 115.771 5.56667 114.788 6.15C113.821 6.71667 113.055 7.49167 112.488 8.475C111.921 9.45833 111.638 10.525 111.638 11.675C111.638 12.825 111.921 13.8917 112.488 14.875C113.055 15.8583 113.821 16.6417 114.788 17.225C115.771 17.7917 116.838 18.075 117.988 18.075ZM117.738 15.775C116.505 15.775 115.555 15.4167 114.888 14.7C114.238 13.9667 113.913 12.9917 113.913 11.775C113.913 10.425 114.305 9.35833 115.088 8.575C115.888 7.79167 116.996 7.4 118.413 7.4C118.896 7.4 119.413 7.45 119.963 7.55C120.513 7.63333 120.871 7.69167 121.038 7.725L121.113 7.9C121.08 8.03333 121.021 8.33333 120.938 8.8C120.855 9.26667 120.796 9.8 120.763 10.4L119.288 10.475L119.313 9.825C119.313 9.475 119.213 9.21667 119.013 9.05C118.83 8.88333 118.513 8.8 118.063 8.8C117.463 8.8 117.013 9.00833 116.713 9.425C116.43 9.825 116.288 10.4667 116.288 11.35C116.288 13.3667 116.905 14.375 118.138 14.375C118.588 14.375 118.93 14.25 119.163 14C119.396 13.7333 119.546 13.3083 119.613 12.725L121.063 12.625C121.046 12.775 121.005 13.1083 120.938 13.625C120.888 14.1417 120.855 14.6333 120.838 15.1L120.688 15.3C120.621 15.3333 120.455 15.3917 120.188 15.475C119.921 15.5417 119.563 15.6083 119.113 15.675C118.68 15.7417 118.221 15.775 117.738 15.775ZM133.341 16.35C134.674 14.8167 135.624 13.5917 136.191 12.675C136.774 11.7583 137.066 11 137.066 10.4C137.066 9.9 136.924 9.51667 136.641 9.25C136.374 8.98333 135.991 8.85 135.491 8.85C134.991 8.85 134.491 9.025 133.991 9.375C133.508 9.70833 133.066 10.175 132.666 10.775H132.341L131.916 9C132.549 8.15 133.291 7.48333 134.141 7C134.991 6.5 135.858 6.25 136.741 6.25C137.908 6.25 138.841 6.55 139.541 7.15C140.258 7.73333 140.616 8.50833 140.616 9.475C140.616 10.0083 140.474 10.5667 140.191 11.15C139.924 11.7167 139.458 12.4167 138.791 13.25C138.124 14.0667 137.166 15.1583 135.916 16.525L136.016 16.725H138.491C139.274 16.725 139.824 16.575 140.141 16.275C140.474 15.9583 140.733 15.35 140.916 14.45L142.766 14.275C142.699 14.575 142.583 15.2167 142.416 16.2C142.249 17.1833 142.133 18.0917 142.066 18.925L141.716 19.225C141.049 19.2083 139.716 19.1667 137.716 19.1C135.716 19.0333 134.224 19 133.241 19L131.641 19.225L131.466 18.425L133.341 16.35ZM149.126 19.3C147.493 19.3 146.201 18.7417 145.251 17.625C144.301 16.5083 143.826 14.9917 143.826 13.075C143.826 11.725 144.076 10.5333 144.576 9.5C145.076 8.46667 145.776 7.66667 146.676 7.1C147.576 6.53333 148.609 6.25 149.776 6.25C151.409 6.25 152.701 6.80833 153.651 7.925C154.601 9.025 155.076 10.525 155.076 12.425C155.076 13.7917 154.826 14.9917 154.326 16.025C153.843 17.0583 153.151 17.8667 152.251 18.45C151.351 19.0167 150.309 19.3 149.126 19.3ZM149.551 16.1C150.651 16.1 151.509 15.825 152.126 15.275C152.759 14.725 153.076 13.9667 153.076 13C153.076 11.9667 152.734 11.1417 152.051 10.525C151.368 9.89167 150.443 9.575 149.276 9.575C148.193 9.575 147.343 9.85833 146.726 10.425C146.109 10.975 145.801 11.7417 145.801 12.725C145.801 13.7583 146.134 14.5833 146.801 15.2C147.484 15.8 148.401 16.1 149.551 16.1ZM157.999 16.35C159.332 14.8167 160.282 13.5917 160.849 12.675C161.432 11.7583 161.724 11 161.724 10.4C161.724 9.9 161.582 9.51667 161.299 9.25C161.032 8.98333 160.649 8.85 160.149 8.85C159.649 8.85 159.149 9.025 158.649 9.375C158.166 9.70833 157.724 10.175 157.324 10.775H156.999L156.574 9C157.207 8.15 157.949 7.48333 158.799 7C159.649 6.5 160.516 6.25 161.399 6.25C162.566 6.25 163.499 6.55 164.199 7.15C164.916 7.73333 165.274 8.50833 165.274 9.475C165.274 10.0083 165.132 10.5667 164.849 11.15C164.582 11.7167 164.116 12.4167 163.449 13.25C162.782 14.0667 161.824 15.1583 160.574 16.525L160.674 16.725H163.149C163.932 16.725 164.482 16.575 164.799 16.275C165.132 15.9583 165.391 15.35 165.574 14.45L167.424 14.275C167.357 14.575 167.241 15.2167 167.074 16.2C166.907 17.1833 166.791 18.0917 166.724 18.925L166.374 19.225C165.707 19.2083 164.374 19.1667 162.374 19.1C160.374 19.0333 158.882 19 157.899 19L156.299 19.225L156.124 18.425L157.999 16.35ZM168.809 17.725C169.659 17.6417 170.242 17.4417 170.559 17.125C170.876 16.8083 171.034 16.2333 171.034 15.4V10C171.034 9.41667 170.942 9.03333 170.759 8.85C170.576 8.66667 170.242 8.575 169.759 8.575C169.559 8.575 169.317 8.59167 169.034 8.625C168.767 8.65833 168.592 8.68333 168.509 8.7L168.359 8.55L168.509 7.125C169.492 7.025 170.492 6.9 171.509 6.75C172.742 6.58333 173.601 6.45833 174.084 6.375C174.567 6.29167 174.826 6.25 174.859 6.25L175.109 6.975C174.809 7.225 174.592 7.49167 174.459 7.775C174.326 8.04167 174.226 8.43333 174.159 8.95C173.992 10.85 173.909 13.1167 173.909 15.75C173.909 16.3667 173.984 16.8 174.134 17.05C174.301 17.2833 174.592 17.4 175.009 17.4C175.309 17.4 175.567 17.3917 175.784 17.375C176.017 17.3583 176.167 17.35 176.234 17.35L176.309 17.475L176.034 19.1C175.784 19.0833 175.309 19.0583 174.609 19.025C173.909 19.0083 173.192 19 172.459 19C171.726 19 170.917 19.0417 170.034 19.125C169.167 19.225 168.692 19.275 168.609 19.275L168.809 17.725ZM189.39 19L189.515 17.525C190.081 17.475 190.49 17.425 190.74 17.375C191.006 17.3083 191.19 17.225 191.29 17.125C191.39 17.0083 191.44 16.8417 191.44 16.625C191.44 16.425 191.398 16.1333 191.315 15.75L190.79 13.825C189.923 13.7917 189.156 13.775 188.49 13.775C188.19 13.775 187.565 13.8167 186.615 13.9L186.09 13.95L185.465 15.875C185.365 16.2417 185.315 16.5 185.315 16.65C185.315 16.95 185.398 17.1583 185.565 17.275C185.748 17.3917 186.056 17.45 186.49 17.45H187.565L187.69 17.625L187.515 19.15C187.281 19.1333 186.781 19.1 186.015 19.05C185.248 19.0167 184.531 19 183.865 19C183.165 19 182.531 19.0083 181.965 19.025C181.415 19.0417 181.048 19.0583 180.865 19.075L181.04 17.45C181.423 17.3833 181.74 17.225 181.99 16.975C182.24 16.725 182.473 16.3167 182.69 15.75L187.165 3.075L190.99 2.675L191.265 2.8C191.515 3.75 192.031 5.7 192.815 8.65C193.615 11.5833 194.298 13.9417 194.865 15.725C195.048 16.325 195.281 16.75 195.565 17C195.848 17.25 196.273 17.4 196.84 17.45L196.94 17.625L196.765 19.075C196.548 19.0583 196.14 19.0417 195.54 19.025C194.94 19.0083 194.331 19 193.715 19C192.831 19 191.965 19.025 191.115 19.075C190.281 19.1417 189.748 19.1833 189.515 19.2L189.39 19ZM188.49 11.85C188.673 11.85 189.29 11.825 190.34 11.775L188.865 6.2H188.54L186.69 11.85H188.49ZM209.915 19.675C208.281 17.075 206.631 14.5417 204.965 12.075C203.315 9.60833 202.49 8.39167 202.49 8.425H202.265L202.24 16.3C202.24 16.7333 202.298 17.0333 202.415 17.2C202.548 17.35 202.773 17.425 203.09 17.425L204.19 17.375L204.315 17.525L204.065 19.1C203.831 19.0833 203.398 19.0583 202.765 19.025C202.131 19.0083 201.498 19 200.865 19C200.315 19 199.723 19.025 199.09 19.075C198.456 19.1417 198.048 19.1833 197.865 19.2L198.04 17.55C198.556 17.4833 198.931 17.3333 199.165 17.1C199.398 16.85 199.523 16.475 199.54 15.975L199.84 6.05C199.84 5.51667 199.706 5.14167 199.44 4.925C199.173 4.70833 198.631 4.55833 197.815 4.475L197.64 4.25L197.815 2.825C197.998 2.84167 198.39 2.86667 198.99 2.9C199.59 2.93333 200.148 2.95 200.665 2.95C201.098 2.95 201.556 2.94167 202.04 2.925C202.54 2.89167 202.865 2.86667 203.015 2.85C204.381 5.08333 205.848 7.38333 207.415 9.75C208.998 12.1167 209.79 13.2833 209.79 13.25H210.04L209.99 5.625C209.973 5.24167 209.898 4.96667 209.765 4.8C209.648 4.63333 209.448 4.55 209.165 4.55L208.29 4.575L208.215 4.4L208.39 2.85C208.623 2.86667 209.048 2.89167 209.665 2.925C210.298 2.94167 210.931 2.95 211.565 2.95C212.065 2.95 212.623 2.93333 213.24 2.9C213.873 2.86667 214.29 2.84167 214.49 2.825L214.365 4.475C213.798 4.55833 213.39 4.71667 213.14 4.95C212.906 5.18333 212.781 5.55 212.765 6.05L212.44 19.35L209.915 19.675ZM223.824 19C223.241 19 222.557 19.0333 221.774 19.1C220.991 19.1667 220.474 19.2167 220.224 19.25L220.399 17.6C221.116 17.4667 221.599 17.2667 221.849 17C222.099 16.7167 222.224 16.25 222.224 15.6L222.249 5.8C222.249 5.33333 222.191 5.00833 222.074 4.825C221.957 4.64167 221.749 4.55 221.449 4.55C221.282 4.55 221.116 4.55833 220.949 4.575C220.782 4.59167 220.666 4.6 220.599 4.6L220.424 4.4L220.649 2.9C220.916 2.9 221.399 2.90833 222.099 2.925C222.816 2.94167 223.482 2.95 224.099 2.95C224.732 2.95 225.441 2.93333 226.224 2.9C227.007 2.86667 227.557 2.84167 227.874 2.825C229.591 2.825 230.899 3.15833 231.799 3.825C232.699 4.49167 233.149 5.45 233.149 6.7C233.149 7.53333 232.907 8.275 232.424 8.925C231.957 9.55833 231.299 10.0917 230.449 10.525C231.532 10.8083 232.391 11.2583 233.024 11.875C233.674 12.4917 233.999 13.2833 233.999 14.25C233.999 15.2333 233.724 16.1083 233.174 16.875C232.641 17.625 231.882 18.2083 230.899 18.625C229.932 19.0417 228.807 19.25 227.524 19.25C227.324 19.25 227.049 19.2333 226.699 19.2C226.349 19.1667 226.082 19.1417 225.899 19.125C225.682 19.1083 225.349 19.0833 224.899 19.05C224.449 19.0167 224.091 19 223.824 19ZM225.549 9.8C225.749 9.81667 226.149 9.85833 226.749 9.925C227.349 9.99167 227.749 10.025 227.949 10.025C227.949 10.0583 228.107 9.975 228.424 9.775C228.757 9.55833 229.049 9.25 229.299 8.85C229.566 8.45 229.699 7.94167 229.699 7.325C229.699 6.475 229.416 5.85 228.849 5.45C228.282 5.05 227.399 4.85 226.199 4.85C226.032 4.85 225.916 4.88333 225.849 4.95C225.799 5.01667 225.766 5.14167 225.749 5.325C225.649 6.675 225.582 8.16667 225.549 9.8ZM225.399 15.675C225.399 16.2083 225.582 16.5917 225.949 16.825C226.316 17.0417 226.924 17.15 227.774 17.15C228.591 17.15 229.232 16.925 229.699 16.475C230.166 16.025 230.399 15.4083 230.399 14.625C230.399 13.9417 230.174 13.375 229.724 12.925C229.291 12.4583 228.657 12.1333 227.824 11.95L225.499 11.975L225.399 15.675ZM239.498 19C238.914 19 238.231 19.0333 237.448 19.1C236.664 19.1667 236.148 19.2167 235.898 19.25L236.073 17.6C236.789 17.4667 237.273 17.2667 237.523 17C237.773 16.7167 237.898 16.25 237.898 15.6L237.923 5.8C237.923 5.33333 237.864 5.00833 237.748 4.825C237.631 4.64167 237.423 4.55 237.123 4.55C236.956 4.55 236.789 4.55833 236.623 4.575C236.456 4.59167 236.339 4.6 236.273 4.6L236.098 4.4L236.323 2.9C236.589 2.9 237.073 2.90833 237.773 2.925C238.489 2.94167 239.156 2.95 239.773 2.95C240.406 2.95 241.114 2.93333 241.898 2.9C242.681 2.86667 243.231 2.84167 243.548 2.825C245.264 2.825 246.573 3.15833 247.473 3.825C248.373 4.49167 248.823 5.45 248.823 6.7C248.823 7.53333 248.581 8.275 248.098 8.925C247.631 9.55833 246.973 10.0917 246.123 10.525C247.206 10.8083 248.064 11.2583 248.698 11.875C249.348 12.4917 249.673 13.2833 249.673 14.25C249.673 15.2333 249.398 16.1083 248.848 16.875C248.314 17.625 247.556 18.2083 246.573 18.625C245.606 19.0417 244.481 19.25 243.198 19.25C242.998 19.25 242.723 19.2333 242.373 19.2C242.023 19.1667 241.756 19.1417 241.573 19.125C241.356 19.1083 241.023 19.0833 240.573 19.05C240.123 19.0167 239.764 19 239.498 19ZM241.223 9.8C241.423 9.81667 241.823 9.85833 242.423 9.925C243.023 9.99167 243.423 10.025 243.623 10.025C243.623 10.0583 243.781 9.975 244.098 9.775C244.431 9.55833 244.723 9.25 244.973 8.85C245.239 8.45 245.373 7.94167 245.373 7.325C245.373 6.475 245.089 5.85 244.523 5.45C243.956 5.05 243.073 4.85 241.873 4.85C241.706 4.85 241.589 4.88333 241.523 4.95C241.473 5.01667 241.439 5.14167 241.423 5.325C241.323 6.675 241.256 8.16667 241.223 9.8ZM241.073 15.675C241.073 16.2083 241.256 16.5917 241.623 16.825C241.989 17.0417 242.598 17.15 243.448 17.15C244.264 17.15 244.906 16.925 245.373 16.475C245.839 16.025 246.073 15.4083 246.073 14.625C246.073 13.9417 245.848 13.375 245.398 12.925C244.964 12.4583 244.331 12.1333 243.498 11.95L241.173 11.975L241.073 15.675ZM267.722 24.7C266.955 24.7 266.222 24.5667 265.522 24.3C264.838 24.0333 263.98 23.525 262.947 22.775C261.913 22.0417 260.43 20.8833 258.497 19.3C257.03 19.3 255.755 18.9833 254.672 18.35C253.605 17.7 252.78 16.7833 252.197 15.6C251.63 14.4167 251.347 13.0167 251.347 11.4C251.347 9.66667 251.688 8.14167 252.372 6.825C253.055 5.50833 254.013 4.48333 255.247 3.75C256.497 3.01667 257.93 2.65 259.547 2.65C261.047 2.65 262.338 2.96667 263.422 3.6C264.522 4.21667 265.355 5.11667 265.922 6.3C266.505 7.46667 266.797 8.85833 266.797 10.475C266.797 12.3917 266.33 14.0833 265.397 15.55C264.463 17 263.222 18.0333 261.672 18.65V18.875C263.055 19.8417 264.297 20.55 265.397 21C266.497 21.4667 267.505 21.7 268.422 21.7C268.905 21.7 269.347 21.6667 269.747 21.6C270.163 21.5333 270.43 21.4833 270.547 21.45L270.722 21.6L270.997 22.625C270.863 22.725 270.572 22.9417 270.122 23.275C269.688 23.6083 269.23 23.925 268.747 24.225C268.263 24.5417 267.922 24.7 267.722 24.7ZM259.147 17.175C260.347 17.175 261.28 16.7083 261.947 15.775C262.63 14.825 262.972 13.4917 262.972 11.775C262.972 9.59167 262.613 7.925 261.897 6.775C261.18 5.60833 260.163 5.025 258.847 5.025C257.663 5.025 256.738 5.5 256.072 6.45C255.422 7.38333 255.097 8.70833 255.097 10.425C255.097 12.6083 255.447 14.2833 256.147 15.45C256.863 16.6 257.863 17.175 259.147 17.175ZM297.034 17.55L296.809 19.075C295.309 19.025 294.409 19 294.109 19C293.493 19 292.568 19.0667 291.334 19.2L291.459 17.65C291.876 17.5667 292.168 17.4167 292.334 17.2C292.518 16.9833 292.618 16.6667 292.634 16.25L292.734 11.925C292.784 10.475 292.243 9.75 291.109 9.75C290.793 9.75 290.418 9.85 289.984 10.05C289.551 10.25 289.151 10.5 288.784 10.8C288.751 11.9333 288.734 13.7833 288.734 16.35C288.734 16.7667 288.793 17.0583 288.909 17.225C289.026 17.3917 289.218 17.475 289.484 17.475L290.109 17.45L290.184 17.575L289.934 19.075C288.484 19.025 287.584 19 287.234 19C286.718 19 285.976 19.0167 285.009 19.05C284.876 19.0667 284.693 19.075 284.459 19.075L284.659 17.55C285.109 17.5 285.418 17.3833 285.584 17.2C285.768 17 285.859 16.6667 285.859 16.2V5.6C285.393 5.31667 284.834 5.13333 284.184 5.05C283.551 4.95 282.443 4.88333 280.859 4.85C280.776 6.1 280.701 7.8 280.634 9.95C280.584 12.1 280.559 14.075 280.559 15.875C280.559 16.3917 280.659 16.775 280.859 17.025C281.076 17.2583 281.401 17.375 281.834 17.375C282.234 17.375 282.643 17.35 283.059 17.3L283.159 17.425L282.959 19.1C281.259 19.0333 279.884 19 278.834 19C278.068 19 276.684 19.05 274.684 19.15L274.884 17.525C275.651 17.4583 276.201 17.3583 276.534 17.225C276.868 17.0917 277.093 16.8583 277.209 16.525C277.326 16.1917 277.384 15.6417 277.384 14.875V4.85C276.401 4.88333 275.718 4.975 275.334 5.125C274.951 5.25833 274.684 5.525 274.534 5.925C274.384 6.325 274.251 7.05833 274.134 8.125L272.084 8.275C272.234 6.49167 272.334 4.71667 272.384 2.95L272.659 2.675L275.134 2.95H283.609L285.684 2.75L285.559 1.4L285.759 1.05L288.484 0.599998C288.634 0.583332 288.776 0.558332 288.909 0.524999C289.059 0.491666 289.201 0.466665 289.334 0.449999L289.509 0.924999C289.343 1.10833 289.201 1.94167 289.084 3.425C288.968 4.90833 288.876 6.875 288.809 9.325C289.293 8.875 289.884 8.40833 290.584 7.925C291.284 7.425 291.809 7.175 292.159 7.175C293.359 7.175 294.284 7.45833 294.934 8.025C295.584 8.575 295.909 9.36667 295.909 10.4C295.909 10.8 295.834 11.675 295.684 13.025C295.518 14.725 295.434 15.8167 295.434 16.3C295.434 16.7333 295.493 17.0417 295.609 17.225C295.743 17.4083 295.943 17.5 296.209 17.5L296.984 17.45L297.034 17.55ZM303.919 19.3C302.169 19.3 300.785 18.7917 299.769 17.775C298.769 16.7417 298.269 15.3333 298.269 13.55C298.269 12.35 298.527 11.2667 299.044 10.3C299.56 9.33333 300.269 8.575 301.169 8.025C302.069 7.45833 303.069 7.175 304.169 7.175C306.969 7.175 308.369 8.59167 308.369 11.425C308.369 11.925 308.31 12.3917 308.194 12.825L307.894 13.125H301.419C301.435 14.3417 301.719 15.275 302.269 15.925C302.835 16.5583 303.619 16.875 304.619 16.875C305.485 16.875 306.477 16.625 307.594 16.125L307.769 16.225L308.169 17.45C307.552 17.9167 306.835 18.3417 306.019 18.725C305.219 19.1083 304.519 19.3 303.919 19.3ZM304.844 11.55C305.044 11.5333 305.169 11.4917 305.219 11.425C305.285 11.3583 305.319 11.2083 305.319 10.975C305.319 9.74167 304.794 9.125 303.744 9.125C303.094 9.125 302.56 9.35 302.144 9.8C301.744 10.25 301.502 10.9 301.419 11.75L304.844 11.55ZM317.142 17.65C317.542 17.5667 317.825 17.4167 317.992 17.2C318.175 16.9833 318.275 16.6667 318.292 16.25L318.367 11.925C318.367 11.1917 318.233 10.65 317.967 10.3C317.7 9.93333 317.292 9.75 316.742 9.75C316.108 9.75 315.375 10.0667 314.542 10.7C314.375 13.7 314.292 15.575 314.292 16.325C314.292 16.7583 314.342 17.0583 314.442 17.225C314.558 17.375 314.758 17.45 315.042 17.45L315.717 17.425L315.767 17.525L315.517 19.075C315.333 19.0583 314.983 19.0417 314.467 19.025C313.967 19.0083 313.442 19 312.892 19C312.208 19 311.583 19.0083 311.017 19.025C310.467 19.0417 310.1 19.0583 309.917 19.075L310.142 17.55C310.625 17.5167 310.958 17.4 311.142 17.2C311.342 17 311.442 16.6667 311.442 16.2V10.9C311.442 10.3167 311.35 9.925 311.167 9.725C311 9.50833 310.683 9.4 310.217 9.4H309.892L309.792 9.275L309.917 7.975C310.85 7.84167 311.783 7.68333 312.717 7.5C313.65 7.31667 314.25 7.2 314.517 7.15L314.717 7.4C314.683 7.5 314.633 7.725 314.567 8.075C314.5 8.425 314.458 8.775 314.442 9.125L314.517 9.2C315.1 8.73333 315.717 8.28333 316.367 7.85C317.033 7.4 317.508 7.175 317.792 7.175C318.725 7.175 319.483 7.35 320.067 7.7C320.667 8.05 321.083 8.56667 321.317 9.25C321.783 8.83333 322.375 8.38333 323.092 7.9C323.825 7.41667 324.342 7.175 324.642 7.175C325.825 7.175 326.75 7.45833 327.417 8.025C328.083 8.59167 328.417 9.38333 328.417 10.4C328.417 10.8 328.342 11.675 328.192 13.025C328.025 14.725 327.942 15.8167 327.942 16.3C327.942 16.7333 328 17.0417 328.117 17.225C328.25 17.4083 328.458 17.5 328.742 17.5C328.892 17.5 329.042 17.4917 329.192 17.475C329.358 17.4583 329.467 17.45 329.517 17.45L329.567 17.55L329.317 19.075C329.117 19.0583 328.75 19.0417 328.217 19.025C327.683 19.0083 327.142 19 326.592 19C326.192 19 325.683 19.0167 325.067 19.05C324.467 19.0833 324.075 19.1083 323.892 19.125L324.067 17.575C324.45 17.525 324.717 17.4 324.867 17.2C325.033 17 325.125 16.6833 325.142 16.25L325.217 11.925C325.233 10.475 324.692 9.75 323.592 9.75C322.958 9.75 322.242 10.0583 321.442 10.675L321.117 16.3C321.117 16.7333 321.175 17.0417 321.292 17.225C321.425 17.4083 321.625 17.5 321.892 17.5C322.042 17.5 322.183 17.4917 322.317 17.475C322.45 17.4583 322.542 17.45 322.592 17.45L322.642 17.55L322.392 19.075C322.208 19.0583 321.858 19.0417 321.342 19.025C320.825 19.0083 320.3 19 319.767 19C319.367 19 318.85 19.025 318.217 19.075C317.583 19.1417 317.167 19.1833 316.967 19.2L317.142 17.65ZM336.414 19.3C334.664 19.3 333.28 18.7917 332.264 17.775C331.264 16.7417 330.764 15.3333 330.764 13.55C330.764 12.35 331.022 11.2667 331.539 10.3C332.055 9.33333 332.764 8.575 333.664 8.025C334.564 7.45833 335.564 7.175 336.664 7.175C339.464 7.175 340.864 8.59167 340.864 11.425C340.864 11.925 340.805 12.3917 340.689 12.825L340.389 13.125H333.914C333.93 14.3417 334.214 15.275 334.764 15.925C335.33 16.5583 336.114 16.875 337.114 16.875C337.98 16.875 338.972 16.625 340.089 16.125L340.264 16.225L340.664 17.45C340.047 17.9167 339.33 18.3417 338.514 18.725C337.714 19.1083 337.014 19.3 336.414 19.3ZM337.339 11.55C337.539 11.5333 337.664 11.4917 337.714 11.425C337.78 11.3583 337.814 11.2083 337.814 10.975C337.814 9.74167 337.289 9.125 336.239 9.125C335.589 9.125 335.055 9.35 334.639 9.8C334.239 10.25 333.997 10.9 333.914 11.75L337.339 11.55ZM345.912 19.3C345.312 19.3 344.762 19.25 344.262 19.15C343.778 19.05 343.395 18.95 343.112 18.85C342.828 18.7333 342.653 18.6583 342.587 18.625L342.437 18.375C342.503 17.925 342.562 17.4 342.612 16.8C342.678 16.2 342.728 15.625 342.762 15.075L344.137 14.95C344.153 16.6333 344.895 17.475 346.362 17.475C346.845 17.475 347.245 17.375 347.562 17.175C347.878 16.9583 348.037 16.6917 348.037 16.375C348.037 16.0417 347.87 15.7417 347.537 15.475C347.203 15.1917 346.537 14.8083 345.537 14.325C344.537 13.8583 343.812 13.3667 343.362 12.85C342.912 12.3167 342.687 11.7 342.687 11C342.687 10.25 342.903 9.59167 343.337 9.025C343.77 8.44167 344.378 7.99167 345.162 7.675C345.945 7.34167 346.837 7.175 347.837 7.175C348.32 7.175 348.77 7.20833 349.187 7.275C349.603 7.34167 349.928 7.41667 350.162 7.5C350.412 7.56667 350.57 7.60833 350.637 7.625L350.762 7.875C350.728 8.05833 350.653 8.475 350.537 9.125C350.437 9.75833 350.353 10.4167 350.287 11.1L348.887 11.2L348.912 10.75C348.912 10.1667 348.77 9.74167 348.487 9.475C348.203 9.19167 347.762 9.05 347.162 9.05C346.728 9.05 346.362 9.15833 346.062 9.375C345.762 9.575 345.612 9.83333 345.612 10.15C345.612 10.4667 345.745 10.7583 346.012 11.025C346.278 11.2917 346.72 11.575 347.337 11.875C348.32 12.3417 349.07 12.7583 349.587 13.125C350.12 13.4917 350.487 13.8667 350.687 14.25C350.903 14.6167 351.012 15.0583 351.012 15.575C351.012 16.2583 350.787 16.8833 350.337 17.45C349.887 18.0167 349.27 18.4667 348.487 18.8C347.703 19.1333 346.845 19.3 345.912 19.3Z" fill="#0A376E"/>
</svg>
