<svg width="195" height="17" viewBox="0 0 195 17" fill="none" xmlns="http://www.w3.org/2000/svg">
<path d="M9.954 10.634H2.934L1.422 14H0.036L5.796 1.4H7.11L12.87 14H11.466L9.954 10.634ZM9.468 9.554L6.444 2.786L3.42 9.554H9.468ZM25.4843 1.4V14H24.3863L16.2863 3.776V14H14.9543V1.4H16.0523L24.1703 11.624V1.4H25.4843ZM42.2459 7.502C43.0739 7.682 43.7099 8.042 44.1539 8.582C44.6099 9.11 44.8379 9.794 44.8379 10.634C44.8379 11.714 44.4359 12.548 43.6319 13.136C42.8399 13.712 41.6639 14 40.1039 14H34.3079V1.4H39.7439C41.1479 1.4 42.2339 1.682 43.0019 2.246C43.7819 2.81 44.1719 3.608 44.1719 4.64C44.1719 5.336 43.9979 5.93 43.6499 6.422C43.3139 6.902 42.8459 7.262 42.2459 7.502ZM35.6399 2.498V7.07H39.6539C40.6739 7.07 41.4599 6.878 42.0119 6.494C42.5639 6.098 42.8399 5.528 42.8399 4.784C42.8399 4.04 42.5639 3.476 42.0119 3.092C41.4599 2.696 40.6739 2.498 39.6539 2.498H35.6399ZM40.0859 12.902C41.2139 12.902 42.0659 12.71 42.6419 12.326C43.2179 11.942 43.5059 11.342 43.5059 10.526C43.5059 8.954 42.3659 8.168 40.0859 8.168H35.6399V12.902H40.0859ZM55.8162 7.502C56.6442 7.682 57.2802 8.042 57.7242 8.582C58.1802 9.11 58.4082 9.794 58.4082 10.634C58.4082 11.714 58.0062 12.548 57.2022 13.136C56.4102 13.712 55.2342 14 53.6742 14H47.8782V1.4H53.3142C54.7182 1.4 55.8042 1.682 56.5722 2.246C57.3522 2.81 57.7422 3.608 57.7422 4.64C57.7422 5.336 57.5682 5.93 57.2202 6.422C56.8842 6.902 56.4162 7.262 55.8162 7.502ZM49.2102 2.498V7.07H53.2242C54.2442 7.07 55.0302 6.878 55.5822 6.494C56.1342 6.098 56.4102 5.528 56.4102 4.784C56.4102 4.04 56.1342 3.476 55.5822 3.092C55.0302 2.696 54.2442 2.498 53.2242 2.498H49.2102ZM53.6562 12.902C54.7842 12.902 55.6362 12.71 56.2122 12.326C56.7882 11.942 57.0762 11.342 57.0762 10.526C57.0762 8.954 55.9362 8.168 53.6562 8.168H49.2102V12.902H53.6562ZM74.1385 15.062C73.7545 15.53 73.2985 15.884 72.7705 16.124C72.2545 16.376 71.6905 16.502 71.0785 16.502C70.3345 16.502 69.6265 16.316 68.9545 15.944C68.2945 15.584 67.5505 14.972 66.7225 14.108C65.5105 14.072 64.4185 13.772 63.4465 13.208C62.4745 12.644 61.7125 11.882 61.1605 10.922C60.6085 9.962 60.3325 8.888 60.3325 7.7C60.3325 6.488 60.6145 5.396 61.1785 4.424C61.7545 3.452 62.5465 2.69 63.5545 2.138C64.5745 1.574 65.7085 1.292 66.9565 1.292C68.2045 1.292 69.3265 1.568 70.3225 2.12C71.3305 2.672 72.1225 3.44 72.6985 4.424C73.2745 5.396 73.5625 6.488 73.5625 7.7C73.5625 8.756 73.3405 9.728 72.8965 10.616C72.4645 11.492 71.8525 12.224 71.0605 12.812C70.2805 13.4 69.3805 13.79 68.3605 13.982C69.2845 14.954 70.1965 15.44 71.0965 15.44C72.0325 15.44 72.8305 15.056 73.4905 14.288L74.1385 15.062ZM61.6465 7.7C61.6465 8.684 61.8745 9.572 62.3305 10.364C62.7985 11.156 63.4345 11.78 64.2385 12.236C65.0545 12.692 65.9605 12.92 66.9565 12.92C67.9525 12.92 68.8525 12.692 69.6565 12.236C70.4605 11.78 71.0905 11.156 71.5465 10.364C72.0025 9.572 72.2305 8.684 72.2305 7.7C72.2305 6.716 72.0025 5.828 71.5465 5.036C71.0905 4.244 70.4605 3.62 69.6565 3.164C68.8525 2.708 67.9525 2.48 66.9565 2.48C65.9605 2.48 65.0545 2.708 64.2385 3.164C63.4345 3.62 62.7985 4.244 62.3305 5.036C61.8745 5.828 61.6465 6.716 61.6465 7.7ZM84.733 14.108C83.797 14.108 82.897 13.958 82.033 13.658C81.181 13.358 80.521 12.962 80.053 12.47L80.575 11.444C81.031 11.9 81.637 12.272 82.393 12.56C83.149 12.836 83.929 12.974 84.733 12.974C85.861 12.974 86.707 12.77 87.271 12.362C87.835 11.942 88.117 11.402 88.117 10.742C88.117 10.238 87.961 9.836 87.649 9.536C87.349 9.236 86.977 9.008 86.533 8.852C86.089 8.684 85.471 8.504 84.679 8.312C83.731 8.072 82.975 7.844 82.411 7.628C81.847 7.4 81.361 7.058 80.953 6.602C80.557 6.146 80.359 5.528 80.359 4.748C80.359 4.112 80.527 3.536 80.863 3.02C81.199 2.492 81.715 2.072 82.411 1.76C83.107 1.448 83.971 1.292 85.003 1.292C85.723 1.292 86.425 1.394 87.109 1.598C87.805 1.79 88.405 2.06 88.909 2.408L88.459 3.47C87.931 3.122 87.367 2.864 86.767 2.696C86.167 2.516 85.579 2.426 85.003 2.426C83.899 2.426 83.065 2.642 82.501 3.074C81.949 3.494 81.673 4.04 81.673 4.712C81.673 5.216 81.823 5.624 82.123 5.936C82.435 6.236 82.819 6.47 83.275 6.638C83.743 6.794 84.367 6.968 85.147 7.16C86.071 7.388 86.815 7.616 87.379 7.844C87.955 8.06 88.441 8.396 88.837 8.852C89.233 9.296 89.431 9.902 89.431 10.67C89.431 11.306 89.257 11.888 88.909 12.416C88.573 12.932 88.051 13.346 87.343 13.658C86.635 13.958 85.765 14.108 84.733 14.108ZM100.595 4.532V14H99.3712V12.272C99.0353 12.848 98.5733 13.298 97.9853 13.622C97.3973 13.934 96.7253 14.09 95.9693 14.09C94.7333 14.09 93.7553 13.748 93.0353 13.064C92.3273 12.368 91.9733 11.354 91.9733 10.022V4.532H93.2513V9.896C93.2513 10.892 93.4973 11.648 93.9893 12.164C94.4813 12.68 95.1833 12.938 96.0953 12.938C97.0913 12.938 97.8773 12.638 98.4533 12.038C99.0293 11.426 99.3173 10.58 99.3173 9.5V4.532H100.595ZM119.632 1.4L114.052 14H112.738L107.158 1.4H108.598L113.422 12.344L118.282 1.4H119.632ZM123.782 4.46C125.018 4.46 125.966 4.772 126.626 5.396C127.286 6.008 127.616 6.92 127.616 8.132V14H126.392V12.524C126.104 13.016 125.678 13.4 125.114 13.676C124.562 13.952 123.902 14.09 123.134 14.09C122.078 14.09 121.238 13.838 120.614 13.334C119.99 12.83 119.678 12.164 119.678 11.336C119.678 10.532 119.966 9.884 120.542 9.392C121.13 8.9 122.06 8.654 123.332 8.654H126.338V8.078C126.338 7.262 126.11 6.644 125.654 6.224C125.198 5.792 124.532 5.576 123.656 5.576C123.056 5.576 122.48 5.678 121.928 5.882C121.376 6.074 120.902 6.344 120.506 6.692L119.93 5.738C120.41 5.33 120.986 5.018 121.658 4.802C122.33 4.574 123.038 4.46 123.782 4.46ZM123.332 13.082C124.052 13.082 124.67 12.92 125.186 12.596C125.702 12.26 126.086 11.78 126.338 11.156V9.608H123.368C121.748 9.608 120.938 10.172 120.938 11.3C120.938 11.852 121.148 12.29 121.568 12.614C121.988 12.926 122.576 13.082 123.332 13.082ZM135.911 4.46C137.099 4.46 138.041 4.808 138.737 5.504C139.445 6.188 139.799 7.19 139.799 8.51V14H138.521V8.636C138.521 7.652 138.275 6.902 137.783 6.386C137.291 5.87 136.589 5.612 135.677 5.612C134.657 5.612 133.847 5.918 133.247 6.53C132.659 7.13 132.365 7.964 132.365 9.032V14H131.087V4.532H132.311V6.278C132.659 5.702 133.139 5.258 133.751 4.946C134.375 4.622 135.095 4.46 135.911 4.46ZM158.779 1.4V14H157.465V8.186H149.581V14H148.249V1.4H149.581V7.016H157.465V1.4H158.779ZM165.934 4.46C167.17 4.46 168.118 4.772 168.778 5.396C169.438 6.008 169.768 6.92 169.768 8.132V14H168.544V12.524C168.256 13.016 167.83 13.4 167.266 13.676C166.714 13.952 166.054 14.09 165.286 14.09C164.23 14.09 163.39 13.838 162.766 13.334C162.142 12.83 161.83 12.164 161.83 11.336C161.83 10.532 162.118 9.884 162.694 9.392C163.282 8.9 164.212 8.654 165.484 8.654H168.49V8.078C168.49 7.262 168.262 6.644 167.806 6.224C167.35 5.792 166.684 5.576 165.808 5.576C165.208 5.576 164.632 5.678 164.08 5.882C163.528 6.074 163.054 6.344 162.658 6.692L162.082 5.738C162.562 5.33 163.138 5.018 163.81 4.802C164.482 4.574 165.19 4.46 165.934 4.46ZM165.484 13.082C166.204 13.082 166.822 12.92 167.338 12.596C167.854 12.26 168.238 11.78 168.49 11.156V9.608H165.52C163.9 9.608 163.09 10.172 163.09 11.3C163.09 11.852 163.3 12.29 163.72 12.614C164.14 12.926 164.728 13.082 165.484 13.082ZM178.063 4.46C179.251 4.46 180.193 4.808 180.889 5.504C181.597 6.188 181.951 7.19 181.951 8.51V14H180.673V8.636C180.673 7.652 180.427 6.902 179.935 6.386C179.443 5.87 178.741 5.612 177.829 5.612C176.809 5.612 175.999 5.918 175.399 6.53C174.811 7.13 174.517 7.964 174.517 9.032V14H173.239V4.532H174.463V6.278C174.811 5.702 175.291 5.258 175.903 4.946C176.527 4.622 177.247 4.46 178.063 4.46ZM190.245 4.46C191.433 4.46 192.375 4.808 193.071 5.504C193.779 6.188 194.133 7.19 194.133 8.51V14H192.855V8.636C192.855 7.652 192.609 6.902 192.117 6.386C191.625 5.87 190.923 5.612 190.011 5.612C188.991 5.612 188.181 5.918 187.581 6.53C186.993 7.13 186.699 7.964 186.699 9.032V14H185.421V0.643999H186.699V6.188C187.047 5.636 187.527 5.21 188.139 4.91C188.751 4.61 189.453 4.46 190.245 4.46Z" fill="black"/>
</svg>
