<svg width="97" height="17" viewBox="0 0 97 17" fill="none" xmlns="http://www.w3.org/2000/svg">
<path d="M11.6239 16.384C11.2239 16.384 10.7919 16.184 10.3279 15.784C9.87994 15.368 9.46394 14.808 9.07994 14.104L6.51194 9.448H4.51994L4.44794 13.024C4.44794 13.632 4.48794 14.072 4.56794 14.344C4.64794 14.6 4.79994 14.776 5.02394 14.872C5.24794 14.952 5.63194 14.992 6.17594 14.992L6.22394 15.088L6.00794 16.096C5.81594 16.08 5.43194 16.064 4.85594 16.048C4.27994 16.032 3.67994 16.024 3.05594 16.024C2.49594 16.024 1.99994 16.032 1.56794 16.048C1.13594 16.064 0.847938 16.08 0.703938 16.096L0.919937 15.016C1.43194 14.952 1.81594 14.864 2.07194 14.752C2.32794 14.64 2.50394 14.464 2.59994 14.224C2.69594 13.968 2.74394 13.6 2.74394 13.12L2.76794 3.04C2.76794 2.528 2.70394 2.184 2.57594 2.008C2.46394 1.832 2.23194 1.744 1.87994 1.744C1.71994 1.744 1.55994 1.752 1.39994 1.768C1.23994 1.784 1.12794 1.792 1.06394 1.792L1.01594 1.696L1.18394 0.639999C1.37594 0.655999 1.73594 0.671999 2.26394 0.688C2.79194 0.704 3.31994 0.711999 3.84794 0.711999C4.39194 0.711999 4.95994 0.704 5.55194 0.688C6.15994 0.655999 6.57594 0.631999 6.79994 0.615999C8.28794 0.615999 9.46394 0.951999 10.3279 1.624C11.1919 2.296 11.6239 3.216 11.6239 4.384C11.6239 5.344 11.3119 6.224 10.6879 7.024C10.0799 7.824 9.21594 8.48 8.09594 8.992L10.7359 13.168C11.1999 13.936 11.6479 14.472 12.0799 14.776C12.5279 15.064 13.0719 15.208 13.7119 15.208L13.8079 15.304L13.6639 16.12L11.6239 16.384ZM7.03994 8.344C7.03994 8.392 7.27994 8.288 7.75994 8.032C8.23994 7.776 8.67194 7.384 9.05594 6.856C9.43994 6.328 9.63194 5.648 9.63194 4.816C9.63194 2.704 8.16794 1.648 5.23994 1.648C5.07994 1.648 4.96794 1.688 4.90394 1.768C4.85594 1.832 4.82394 1.976 4.80794 2.2C4.66394 4.648 4.58394 6.616 4.56794 8.104L7.03994 8.344ZM26.7758 11.992C26.5038 13.288 26.2878 14.632 26.1278 16.024L26.0078 16.168C22.6478 16.056 20.2238 16 18.7358 16C17.5518 16 16.4398 16.08 15.3998 16.24L15.5438 15.136C16.2638 15.04 16.7518 14.856 17.0078 14.584C17.2798 14.296 17.4158 13.808 17.4158 13.12L17.4398 3.04C17.4398 2.528 17.3758 2.184 17.2478 2.008C17.1358 1.832 16.9038 1.744 16.5518 1.744L15.7358 1.792L15.6878 1.696L15.8558 0.639999C17.4878 0.687999 18.5998 0.711999 19.1918 0.711999C21.0958 0.711999 22.5758 0.695999 23.6318 0.663999C24.6878 0.615999 25.6078 0.535999 26.3918 0.423999L26.4638 0.568C26.1758 1.832 25.9918 3.16 25.9118 4.552L24.7598 4.648L24.8078 3.616C24.8078 3.056 24.7358 2.672 24.5918 2.464C24.4478 2.24 24.1358 2.096 23.6558 2.032C23.1758 1.952 22.3358 1.912 21.1358 1.912C20.5758 1.912 20.1918 1.928 19.9838 1.96C19.7758 1.992 19.6398 2.072 19.5758 2.2C19.5118 2.312 19.4718 2.528 19.4558 2.848L19.2638 7.504L21.7358 7.528C22.3598 7.528 23.3358 7.44 24.6638 7.264L24.7598 7.384L24.4238 8.8C22.6478 8.752 21.5278 8.728 21.0638 8.728C20.5358 8.728 19.9198 8.784 19.2158 8.896L19.1198 13.48C19.1198 13.944 19.1598 14.272 19.2398 14.464C19.3198 14.64 19.4798 14.76 19.7198 14.824C19.9758 14.888 20.4078 14.92 21.0158 14.92C22.3598 14.92 23.3118 14.856 23.8718 14.728C24.4478 14.6 24.8558 14.344 25.0958 13.96C25.3358 13.576 25.5198 12.92 25.6478 11.992L26.7038 11.872L26.7758 11.992ZM33.4435 16.288C32.7715 16.288 32.1555 16.224 31.5955 16.096C31.0355 15.984 30.5715 15.856 30.2035 15.712C29.8515 15.568 29.6755 15.488 29.6755 15.472L29.5555 15.232C29.5715 15.136 29.6035 14.896 29.6515 14.512C29.6995 14.128 29.7395 13.632 29.7715 13.024C29.8195 12.4 29.8435 11.744 29.8435 11.056L30.9235 10.936C30.9235 12.136 31.0035 13.024 31.1635 13.6C31.3235 14.176 31.6195 14.576 32.0515 14.8C32.4835 15.008 33.1475 15.112 34.0435 15.112C35.0515 15.112 35.8595 14.88 36.4675 14.416C37.0755 13.936 37.3795 13.288 37.3795 12.472C37.3795 11.992 37.2115 11.56 36.8755 11.176C36.5555 10.792 36.1715 10.464 35.7235 10.192C35.2755 9.92 34.6115 9.552 33.7315 9.088C32.8995 8.656 32.2195 8.264 31.6915 7.912C31.1635 7.544 30.7155 7.112 30.3475 6.616C29.9955 6.12 29.8195 5.544 29.8195 4.888C29.8195 4.056 30.0595 3.304 30.5395 2.632C31.0355 1.944 31.6995 1.408 32.5315 1.024C33.3795 0.623999 34.3155 0.423999 35.3395 0.423999C35.9795 0.423999 36.5715 0.471999 37.1155 0.568C37.6595 0.648 38.0915 0.736 38.4115 0.831999C38.7315 0.927999 38.9315 0.991999 39.0115 1.024L39.0835 1.168C39.0675 1.264 39.0275 1.488 38.9635 1.84C38.8995 2.192 38.8275 2.68 38.7475 3.304C38.6675 3.928 38.6035 4.568 38.5555 5.224L37.6195 5.32L37.4755 5.2C37.4915 5.136 37.5075 4.992 37.5235 4.768C37.5395 4.528 37.5475 4.256 37.5475 3.952C37.5475 3.104 37.3395 2.52 36.9235 2.2C36.5075 1.88 35.7635 1.72 34.6915 1.72C33.8115 1.72 33.0835 1.944 32.5075 2.392C31.9475 2.824 31.6675 3.368 31.6675 4.024C31.6675 4.664 31.9395 5.224 32.4835 5.704C33.0435 6.168 33.8595 6.68 34.9315 7.24C35.9715 7.768 36.7635 8.208 37.3075 8.56C37.8515 8.896 38.3315 9.32 38.7475 9.832C39.1635 10.344 39.3715 10.936 39.3715 11.608C39.3715 12.504 39.1155 13.312 38.6035 14.032C38.1075 14.736 37.4115 15.288 36.5155 15.688C35.6195 16.088 34.5955 16.288 33.4435 16.288ZM53.6821 11.992C53.4101 13.288 53.1941 14.632 53.0341 16.024L52.9141 16.168C49.5541 16.056 47.1301 16 45.6421 16C44.4581 16 43.3461 16.08 42.3061 16.24L42.4501 15.136C43.1701 15.04 43.6581 14.856 43.9141 14.584C44.1861 14.296 44.3221 13.808 44.3221 13.12L44.3461 3.04C44.3461 2.528 44.2821 2.184 44.1541 2.008C44.0421 1.832 43.8101 1.744 43.4581 1.744L42.6421 1.792L42.5941 1.696L42.7621 0.639999C44.3941 0.687999 45.5061 0.711999 46.0981 0.711999C48.0021 0.711999 49.4821 0.695999 50.5381 0.663999C51.5941 0.615999 52.5141 0.535999 53.2981 0.423999L53.3701 0.568C53.0821 1.832 52.8981 3.16 52.8181 4.552L51.6661 4.648L51.7141 3.616C51.7141 3.056 51.6421 2.672 51.4981 2.464C51.3541 2.24 51.0421 2.096 50.5621 2.032C50.0821 1.952 49.2421 1.912 48.0421 1.912C47.4821 1.912 47.0981 1.928 46.8901 1.96C46.6821 1.992 46.5461 2.072 46.4821 2.2C46.4181 2.312 46.3781 2.528 46.3621 2.848L46.1701 7.504L48.6421 7.528C49.2661 7.528 50.2421 7.44 51.5701 7.264L51.6661 7.384L51.3301 8.8C49.5541 8.752 48.4341 8.728 47.9701 8.728C47.4421 8.728 46.8261 8.784 46.1221 8.896L46.0261 13.48C46.0261 13.944 46.0661 14.272 46.1461 14.464C46.2261 14.64 46.3861 14.76 46.6261 14.824C46.8821 14.888 47.3141 14.92 47.9221 14.92C49.2661 14.92 50.2181 14.856 50.7781 14.728C51.3541 14.6 51.7621 14.344 52.0021 13.96C52.2421 13.576 52.4261 12.92 52.5541 11.992L53.6101 11.872L53.6821 11.992ZM67.3818 16.384C66.9818 16.384 66.5498 16.184 66.0858 15.784C65.6378 15.368 65.2218 14.808 64.8378 14.104L62.2698 9.448H60.2778L60.2058 13.024C60.2058 13.632 60.2458 14.072 60.3258 14.344C60.4058 14.6 60.5578 14.776 60.7818 14.872C61.0058 14.952 61.3898 14.992 61.9338 14.992L61.9818 15.088L61.7658 16.096C61.5738 16.08 61.1898 16.064 60.6138 16.048C60.0378 16.032 59.4378 16.024 58.8138 16.024C58.2538 16.024 57.7578 16.032 57.3258 16.048C56.8938 16.064 56.6058 16.08 56.4618 16.096L56.6777 15.016C57.1898 14.952 57.5738 14.864 57.8298 14.752C58.0858 14.64 58.2618 14.464 58.3578 14.224C58.4538 13.968 58.5018 13.6 58.5018 13.12L58.5258 3.04C58.5258 2.528 58.4618 2.184 58.3338 2.008C58.2218 1.832 57.9898 1.744 57.6378 1.744C57.4778 1.744 57.3178 1.752 57.1578 1.768C56.9978 1.784 56.8858 1.792 56.8218 1.792L56.7738 1.696L56.9418 0.639999C57.1338 0.655999 57.4938 0.671999 58.0218 0.688C58.5498 0.704 59.0778 0.711999 59.6058 0.711999C60.1498 0.711999 60.7178 0.704 61.3098 0.688C61.9178 0.655999 62.3338 0.631999 62.5578 0.615999C64.0458 0.615999 65.2218 0.951999 66.0858 1.624C66.9498 2.296 67.3818 3.216 67.3818 4.384C67.3818 5.344 67.0698 6.224 66.4458 7.024C65.8378 7.824 64.9738 8.48 63.8538 8.992L66.4938 13.168C66.9578 13.936 67.4058 14.472 67.8378 14.776C68.2858 15.064 68.8298 15.208 69.4698 15.208L69.5658 15.304L69.4218 16.12L67.3818 16.384ZM62.7978 8.344C62.7978 8.392 63.0378 8.288 63.5178 8.032C63.9978 7.776 64.4298 7.384 64.8138 6.856C65.1978 6.328 65.3898 5.648 65.3898 4.816C65.3898 2.704 63.9258 1.648 60.9978 1.648C60.8378 1.648 60.7258 1.688 60.6618 1.768C60.6138 1.832 60.5818 1.976 60.5658 2.2C60.4218 4.648 60.3418 6.616 60.3258 8.104L62.7978 8.344ZM75.2311 16.408C74.9911 15.608 74.4471 13.848 73.5991 11.128C72.7671 8.408 71.9271 5.744 71.0791 3.136C70.9351 2.672 70.6871 2.336 70.3351 2.128C69.9831 1.904 69.4951 1.784 68.8711 1.768L68.8231 1.672L68.9911 0.639999C69.1991 0.639999 69.5831 0.655999 70.1431 0.688C70.7191 0.704 71.2631 0.711999 71.7751 0.711999C72.3031 0.711999 72.9671 0.679999 73.7671 0.615999C74.5831 0.535999 75.1191 0.48 75.3751 0.448L75.4471 0.615999L75.3511 1.552C74.4871 1.616 73.9111 1.712 73.6231 1.84C73.3511 1.968 73.2151 2.208 73.2151 2.56C73.2151 2.88 73.6391 4.544 74.4871 7.552C75.3351 10.544 75.9191 12.584 76.2391 13.672H76.4551C79.1111 6.824 80.4391 3.144 80.4391 2.632C80.4391 2.296 80.3111 2.056 80.0551 1.912C79.7991 1.752 79.3751 1.672 78.7831 1.672H77.5351L77.4871 1.576L77.6311 0.543999C77.8391 0.559999 78.2951 0.592 78.9991 0.639999C79.7191 0.687999 80.4071 0.711999 81.0631 0.711999C81.6551 0.711999 82.1991 0.704 82.6951 0.688C83.2071 0.671999 83.5431 0.655999 83.7031 0.639999L83.5111 1.768C83.0151 1.784 82.6711 1.864 82.4791 2.008C82.2871 2.152 82.1031 2.456 81.9271 2.92L76.7671 15.88L75.2311 16.408ZM96.4555 11.992C96.1835 13.288 95.9675 14.632 95.8075 16.024L95.6875 16.168C92.3275 16.056 89.9035 16 88.4155 16C87.2315 16 86.1195 16.08 85.0795 16.24L85.2235 15.136C85.9435 15.04 86.4315 14.856 86.6875 14.584C86.9595 14.296 87.0955 13.808 87.0955 13.12L87.1195 3.04C87.1195 2.528 87.0555 2.184 86.9275 2.008C86.8155 1.832 86.5835 1.744 86.2315 1.744L85.4155 1.792L85.3675 1.696L85.5355 0.639999C87.1675 0.687999 88.2795 0.711999 88.8715 0.711999C90.7755 0.711999 92.2555 0.695999 93.3115 0.663999C94.3675 0.615999 95.2875 0.535999 96.0715 0.423999L96.1435 0.568C95.8555 1.832 95.6715 3.16 95.5915 4.552L94.4395 4.648L94.4875 3.616C94.4875 3.056 94.4155 2.672 94.2715 2.464C94.1275 2.24 93.8155 2.096 93.3355 2.032C92.8555 1.952 92.0155 1.912 90.8155 1.912C90.2555 1.912 89.8715 1.928 89.6635 1.96C89.4555 1.992 89.3195 2.072 89.2555 2.2C89.1915 2.312 89.1515 2.528 89.1355 2.848L88.9435 7.504L91.4155 7.528C92.0395 7.528 93.0155 7.44 94.3435 7.264L94.4395 7.384L94.1035 8.8C92.3275 8.752 91.2075 8.728 90.7435 8.728C90.2155 8.728 89.5995 8.784 88.8955 8.896L88.7995 13.48C88.7995 13.944 88.8395 14.272 88.9195 14.464C88.9995 14.64 89.1595 14.76 89.3995 14.824C89.6555 14.888 90.0875 14.92 90.6955 14.92C92.0395 14.92 92.9915 14.856 93.5515 14.728C94.1275 14.6 94.5355 14.344 94.7755 13.96C95.0155 13.576 95.1995 12.92 95.3275 11.992L96.3835 11.872L96.4555 11.992Z" fill="white"/>
</svg>
